<?xml version="1.0" encoding="UTF-8"?>
<svg width="708px" height="323px" viewBox="0 0 708 323" version="1.1" xmlns="http://www.w3.org/2000/svg" xmlns:xlink="http://www.w3.org/1999/xlink">
    <!-- Generator: Sketch 60.1 (88133) - https://sketch.com -->
    <title>ICIT_new_logo</title>
    <desc>Created with Sketch.</desc>
    <g id="Social-media" stroke="none" stroke-width="1" fill="none" fill-rule="evenodd">
        <g id="ICIT_new_logo">
            <g id="Group">
                <rect id="Rectangle" fill="#FF7700" x="0" y="0" width="94.6876712" height="94.6876712"></rect>
                <rect id="Rectangle-Copy-16" fill="#01A4EF" x="122.120548" y="0" width="94.6876712" height="94.6876712"></rect>
                <rect id="Rectangle-Copy-23" fill="#01A4EF" x="246.010959" y="0" width="94.6876712" height="94.6876712"></rect>
                <rect id="Rectangle-Copy-26" fill="#01A4EF" x="367.246575" y="0" width="94.6876712" height="94.6876712"></rect>
                <rect id="Rectangle-Copy-2" fill="#01A4EF" x="0" y="113.271233" width="94.6876712" height="94.6876712"></rect>
                <path d="M216.808219,323 L122.120548,323 L122.120548,113.271233 L216.808219,113.271233 L216.808219,323 Z" id="Combined-Shape" fill="#01A4EF"></path>
                <rect id="Rectangle-Copy-27" fill="#FF7700" x="367.246575" y="113.271233" width="94.6876712" height="94.6876712"></rect>
                <rect id="Rectangle-Copy-3" fill="#01A4EF" x="0" y="228.312329" width="94.6876712" height="94.6876712"></rect>
                <rect id="Rectangle-Copy-25" fill="#01A4EF" x="246.010959" y="228.312329" width="94.6876712" height="94.6876712"></rect>
                <rect id="Rectangle-Copy-28" fill="#FF7700" x="367.246575" y="228.312329" width="94.6876712" height="94.6876712"></rect>
                <rect id="Rectangle-Copy-29" fill="#01A4EF" x="491.136986" y="0" width="94.6876712" height="94.6876712"></rect>
                <rect id="Rectangle-Copy-32" fill="#01A4EF" x="613.257534" y="0" width="94.6876712" height="94.6876712"></rect>
                <path d="M585.824658,323 L491.136986,323 L491.136986,113.271233 L585.824658,113.271233 L585.824658,323 Z" id="Combined-Shape" fill="#01A4EF"></path>
            </g>
        </g>
    </g>
</svg>